<svg width="453" height="144" viewBox="0 0 453 144" fill="none" xmlns="http://www.w3.org/2000/svg">
<g clip-path="url(#clip0_17_2)">
<path d="M39.72 113.68C34.6 113.68 29.96 113.2 25.8 112.24C21.64 111.28 18.04 109.84 15 107.92C11.96 105.92 9.56 103.4 7.8 100.36C6.04 97.32 5 93.8 4.68 89.8L21.6 84.16C21.84 87.52 22.8 90.32 24.48 92.56C26.16 94.8 28.4 96.48 31.2 97.6C34.08 98.64 37.28 99.16 40.8 99.16C44.16 99.16 46.96 98.76 49.2 97.96C51.52 97.08 53.24 96 54.36 94.72C55.56 93.36 56.16 91.92 56.16 90.4C56.16 88.64 55.4 87.2 53.88 86.08C52.36 84.88 50.28 83.88 47.64 83.08C45 82.2 41.92 81.36 38.4 80.56C34.4 79.6 30.48 78.56 26.64 77.44C22.8 76.32 19.32 74.88 16.2 73.12C13.08 71.28 10.6 68.96 8.76 66.16C7 63.28 6.12 59.68 6.12 55.36C6.12 50.48 7.36 46.24 9.84 42.64C12.32 39.04 15.96 36.24 20.76 34.24C25.56 32.16 31.48 31.12 38.52 31.12C45.48 31.12 51.4 32.12 56.28 34.12C61.16 36.12 64.92 38.92 67.56 42.52C70.2 46.04 71.64 50.16 71.88 54.88L54.6 59.8C54.6 57.48 54.2 55.44 53.4 53.68C52.68 51.92 51.64 50.48 50.28 49.36C48.92 48.16 47.24 47.28 45.24 46.72C43.24 46.08 40.96 45.76 38.4 45.76C35.36 45.76 32.76 46.12 30.6 46.84C28.52 47.56 26.96 48.52 25.92 49.72C24.88 50.84 24.36 52.16 24.36 53.68C24.36 55.6 25.16 57.2 26.76 58.48C28.44 59.68 30.68 60.72 33.48 61.6C36.36 62.4 39.52 63.2 42.96 64C46.4 64.72 49.96 65.64 53.64 66.76C57.32 67.8 60.76 69.2 63.96 70.96C67.16 72.72 69.72 75.12 71.64 78.16C73.64 81.12 74.64 84.88 74.64 89.44C74.64 94.32 73.32 98.6 70.68 102.28C68.12 105.88 64.24 108.68 59.04 110.68C53.84 112.68 47.4 113.68 39.72 113.68ZM105.384 113.68C98.9844 113.68 93.3044 112.44 88.3444 109.96C83.4644 107.48 79.6244 103.76 76.8244 98.8C74.0244 93.84 72.6244 87.64 72.6244 80.2C72.6244 72.76 74.0244 66.6 76.8244 61.72C79.6244 56.76 83.5044 53.08 88.4644 50.68C93.4244 48.2 99.1044 46.96 105.504 46.96C111.904 46.96 117.584 48.2 122.544 50.68C127.504 53.16 131.384 56.88 134.184 61.84C136.984 66.72 138.384 72.88 138.384 80.32C138.384 87.92 136.944 94.2 134.064 99.16C131.184 104.12 127.224 107.8 122.184 110.2C117.224 112.52 111.624 113.68 105.384 113.68ZM105.984 99.64C108.864 99.64 111.264 99 113.184 97.72C115.104 96.36 116.544 94.32 117.504 91.6C118.464 88.88 118.944 85.52 118.944 81.52C118.944 77.28 118.424 73.72 117.384 70.84C116.344 67.88 114.784 65.64 112.704 64.12C110.704 62.52 108.104 61.72 104.904 61.72C102.184 61.72 99.8244 62.4 97.8244 63.76C95.9044 65.04 94.4644 67.04 93.5044 69.76C92.5444 72.48 92.0644 75.88 92.0644 79.96C92.0644 86.52 93.2644 91.44 95.6644 94.72C98.1444 98 101.584 99.64 105.984 99.64ZM139.501 112V25.6H158.461V112H139.501ZM163.285 112V48.64H182.605V112H163.285ZM173.005 39.76C169.325 39.76 166.485 39 164.485 37.48C162.565 35.88 161.605 33.64 161.605 30.76C161.605 27.72 162.565 25.44 164.485 23.92C166.485 22.32 169.325 21.52 173.005 21.52C176.765 21.52 179.605 22.32 181.525 23.92C183.525 25.44 184.525 27.68 184.525 30.64C184.525 33.6 183.525 35.88 181.525 37.48C179.605 39 176.765 39.76 173.005 39.76ZM210.581 113.68C205.301 113.68 200.661 112.36 196.661 109.72C192.741 107 189.661 103.16 187.421 98.2C185.181 93.16 184.061 87.16 184.061 80.2C184.061 73.8 185.021 68.12 186.941 63.16C188.861 58.2 191.701 54.32 195.461 51.52C199.301 48.64 204.021 47.2 209.621 47.2C213.621 47.2 216.981 47.92 219.701 49.36C222.501 50.8 224.821 52.96 226.661 55.84C228.501 58.72 229.981 62.36 231.101 66.76H234.101C233.541 64.04 233.021 61.48 232.541 59.08C232.061 56.6 231.661 54.32 231.341 52.24C231.101 50.08 230.981 48.2 230.981 46.6V25.6H250.421V81.04V112H234.581L234.341 93.28H231.701C230.821 98.08 229.421 102 227.501 105.04C225.661 108 223.301 110.2 220.421 111.64C217.621 113 214.341 113.68 210.581 113.68ZM217.541 98.08C220.021 98.08 222.101 97.56 223.781 96.52C225.541 95.4 226.941 94 227.981 92.32C229.021 90.64 229.781 88.84 230.261 86.92C230.741 85 230.981 83.2 230.981 81.52V79C230.981 77.48 230.781 75.96 230.381 74.44C229.981 72.92 229.381 71.44 228.581 70C227.861 68.56 226.941 67.28 225.821 66.16C224.701 65.04 223.381 64.16 221.861 63.52C220.421 62.88 218.821 62.56 217.061 62.56C214.421 62.56 212.141 63.28 210.221 64.72C208.381 66.16 206.941 68.2 205.901 70.84C204.941 73.48 204.461 76.6 204.461 80.2C204.461 83.8 204.981 86.96 206.021 89.68C207.061 92.32 208.581 94.4 210.581 95.92C212.581 97.36 214.901 98.08 217.541 98.08ZM255.991 112V32.8H275.311V67.48C279.231 65.72 282.871 63.52 286.231 60.88C289.591 58.24 292.551 55.36 295.111 52.24C297.751 49.12 299.911 45.92 301.591 42.64C303.351 39.28 304.631 36 305.431 32.8H327.751C326.791 36.48 325.231 40.24 323.071 44.08C320.911 47.84 318.311 51.48 315.271 55C312.231 58.44 308.951 61.52 305.431 64.24C301.991 66.96 298.471 69.12 294.871 70.72V72.52C298.551 72.52 301.791 72.92 304.591 73.72C307.471 74.52 309.991 75.76 312.151 77.44C314.391 79.12 316.311 81.24 317.911 83.8C319.591 86.28 321.031 89.28 322.231 92.8L329.071 112H307.111L302.671 96.28C301.711 92.76 300.431 90 298.831 88C297.231 85.92 295.111 84.44 292.471 83.56C289.831 82.6 286.431 82.12 282.271 82.12H275.311V112H255.991ZM356.399 113.68C351.119 113.68 346.399 113 342.239 111.64C338.079 110.2 334.519 108.12 331.559 105.4C328.679 102.68 326.479 99.32 324.959 95.32C323.439 91.32 322.679 86.72 322.679 81.52C322.679 76.48 323.399 71.84 324.839 67.6C326.359 63.36 328.479 59.72 331.199 56.68C333.999 53.56 337.399 51.16 341.399 49.48C345.479 47.8 350.039 46.96 355.079 46.96C360.199 46.96 364.679 47.8 368.519 49.48C372.439 51.08 375.639 53.48 378.119 56.68C380.679 59.88 382.559 63.8 383.759 68.44C384.959 73 385.359 78.24 384.959 84.16L335.399 84.52V74.44L373.919 74.08L367.079 78.76C367.639 74.76 367.399 71.52 366.359 69.04C365.319 66.48 363.799 64.64 361.799 63.52C359.799 62.32 357.639 61.72 355.319 61.72C352.519 61.72 350.039 62.48 347.879 64C345.799 65.52 344.159 67.72 342.959 70.6C341.759 73.48 341.159 77 341.159 81.16C341.159 87.72 342.559 92.48 345.359 95.44C348.239 98.4 351.879 99.88 356.279 99.88C358.439 99.88 360.239 99.6 361.679 99.04C363.119 98.4 364.279 97.64 365.159 96.76C366.119 95.8 366.839 94.76 367.319 93.64C367.879 92.52 368.319 91.44 368.639 90.4L385.439 94C384.799 96.96 383.759 99.64 382.319 102.04C380.959 104.44 379.079 106.52 376.679 108.28C374.359 110.04 371.519 111.36 368.159 112.24C364.879 113.2 360.959 113.68 356.399 113.68ZM410.869 134.08C407.669 134.08 404.389 133.8 401.029 133.24C397.669 132.68 394.469 131.84 391.429 130.72C388.469 129.68 385.909 128.28 383.749 126.52L388.429 109.36C391.229 112 394.589 113.96 398.509 115.24C402.509 116.52 406.349 117.16 410.029 117.16C414.269 117.16 417.749 116.32 420.469 114.64C423.269 113.04 425.389 110.56 426.829 107.2C428.349 103.76 429.229 99.52 429.469 94.48L430.069 84.04H427.189C426.469 89.24 425.189 93.48 423.349 96.76C421.589 100.04 419.309 102.48 416.509 104.08C413.789 105.6 410.549 106.36 406.789 106.36C402.149 106.36 398.269 105.2 395.149 102.88C392.029 100.56 389.669 97.08 388.069 92.44C386.549 87.72 385.789 81.88 385.789 74.92V48.64H405.229V70.12C405.229 77.48 405.949 82.76 407.389 85.96C408.909 89.08 411.269 90.64 414.469 90.64C416.149 90.64 417.669 90.16 419.029 89.2C420.389 88.24 421.549 86.88 422.509 85.12C423.469 83.36 424.189 81.24 424.669 78.76C425.229 76.2 425.509 73.36 425.509 70.24V48.64H444.829V95.2C444.829 100.24 444.349 104.84 443.389 109C442.509 113.16 441.149 116.8 439.309 119.92C437.549 123.04 435.309 125.64 432.589 127.72C429.869 129.88 426.709 131.48 423.109 132.52C419.509 133.56 415.429 134.08 410.869 134.08Z" fill="url(#paint0_radial_17_2)"/>
</g>
<defs>
<radialGradient id="paint0_radial_17_2" cx="0" cy="0" r="1" gradientUnits="userSpaceOnUse" gradientTransform="translate(226.5 6.48741e-06) rotate(90) scale(111.443 226.5)">
<stop stop-opacity="0"/>
<stop offset="1"/>
</radialGradient>
<clipPath id="clip0_17_2">
<rect width="453" height="144" fill="white"/>
</clipPath>
</defs>
</svg>
