<svg width="816" height="186" viewBox="0 0 816 186" fill="none" xmlns="http://www.w3.org/2000/svg">
<g clip-path="url(#clip0_43_5)">
<g clip-path="url(#clip1_43_5)">
<rect y="18" width="150" height="150" rx="30" fill="url(#paint0_radial_43_5)"/>
<g filter="url(#filter0_d_43_5)">
<rect x="10" y="28" width="130" height="130" rx="20" fill="url(#paint1_radial_43_5)"/>
</g>
</g>
<rect x="-0.5" y="17.5" width="151" height="151" rx="30.5" stroke="black" stroke-opacity="0.04"/>
<path d="M249.15 152.55C241.05 152.55 233.15 151.25 225.45 148.65C217.75 146.05 211.2 141.65 205.8 135.45C200.4 129.25 197.35 121.15 196.65 111.15H224.4C227.7 123.75 235.9 130.05 249 130.05C254 130.05 258.2 129 261.6 126.9C265.1 124.7 266.85 121.5 266.85 117.3C266.85 114.5 265.75 112.2 263.55 110.4C261.45 108.6 258.75 107.2 255.45 106.2C252.25 105.2 247.7 104.05 241.8 102.75C232.9 100.75 225.65 98.7 220.05 96.6C214.55 94.5 209.75 91.2 205.65 86.7C201.65 82.1 199.65 75.9 199.65 68.1C199.65 60.5 201.5 54.1 205.2 48.9C209 43.6 214.1 39.65 220.5 37.05C226.9 34.45 234.1 33.15 242.1 33.15C250.3 33.15 257.9 34.6 264.9 37.5C271.9 40.3 277.7 44.6 282.3 50.4C286.9 56.1 289.8 63.05 291 71.25H263.25C261.85 66.35 259.25 62.55 255.45 59.85C251.75 57.05 247.1 55.65 241.5 55.65C237.3 55.65 233.7 56.5 230.7 58.2C227.8 59.9 226.35 62.45 226.35 65.85C226.35 68.45 227.35 70.6 229.35 72.3C231.45 73.9 234.05 75.2 237.15 76.2C240.35 77.2 244.8 78.35 250.5 79.65C259.4 81.65 266.75 83.75 272.55 85.95C278.35 88.15 283.35 91.65 287.55 96.45C291.75 101.25 293.85 107.75 293.85 115.95C293.85 123.45 292.05 129.95 288.45 135.45C284.85 140.95 279.7 145.2 273 148.2C266.3 151.1 258.35 152.55 249.15 152.55ZM340.787 151.8C331.987 151.8 324.187 149.95 317.387 146.25C310.687 142.55 305.437 137.3 301.637 130.5C297.937 123.7 296.087 115.85 296.087 106.95C296.087 98.35 297.937 90.75 301.637 84.15C305.437 77.45 310.687 72.3 317.387 68.7C324.187 65 331.987 63.15 340.787 63.15C349.587 63.15 357.337 65 364.037 68.7C370.837 72.4 376.087 77.55 379.787 84.15C383.587 90.75 385.487 98.35 385.487 106.95C385.487 115.85 383.637 123.7 379.937 130.5C376.237 137.3 370.987 142.55 364.187 146.25C357.487 149.95 349.687 151.8 340.787 151.8ZM340.787 130.2C346.487 130.2 350.987 128.1 354.287 123.9C357.587 119.6 359.237 113.95 359.237 106.95C359.237 100.25 357.537 94.85 354.137 90.75C350.837 86.65 346.387 84.6 340.787 84.6C335.187 84.6 330.637 86.65 327.137 90.75C323.737 94.85 322.037 100.25 322.037 106.95C322.037 114.05 323.737 119.7 327.137 123.9C330.537 128.1 335.087 130.2 340.787 130.2ZM410.111 150C403.911 150 399.111 148.55 395.711 145.65C392.311 142.65 390.611 138.45 390.611 133.05V35.55H415.811V124.35C415.811 127.85 417.461 129.6 420.761 129.6H427.061V150H410.111ZM456.514 150H431.314V64.95H456.514V150ZM443.914 59.1C439.914 59.1 436.514 57.95 433.714 55.65C431.014 53.25 429.664 50.1 429.664 46.2C429.664 42.3 431.014 39.15 433.714 36.75C436.514 34.35 439.914 33.15 443.914 33.15C447.914 33.15 451.264 34.35 453.964 36.75C456.764 39.15 458.164 42.3 458.164 46.2C458.164 50.1 456.764 53.25 453.964 55.65C451.264 57.95 447.914 59.1 443.914 59.1ZM499.463 151.8C492.263 151.8 485.863 149.95 480.263 146.25C474.663 142.45 470.263 137.2 467.063 130.5C463.963 123.7 462.413 116 462.413 107.4C462.413 98.9 463.963 91.3 467.063 84.6C470.263 77.8 474.663 72.55 480.263 68.85C485.863 65.05 492.263 63.15 499.463 63.15C504.463 63.15 508.713 64 512.213 65.7C515.713 67.4 518.863 70.45 521.663 74.85L523.763 73.35C522.763 72.15 522.063 71 521.663 69.9C521.363 68.8 521.213 67.45 521.213 65.85V35.55H546.413V150H521.213V149.1C521.213 147.5 521.363 146.15 521.663 145.05C522.063 143.95 522.763 142.8 523.763 141.6L521.663 140.1C518.863 144.5 515.713 147.55 512.213 149.25C508.713 150.95 504.463 151.8 499.463 151.8ZM506.513 130.35C512.113 130.35 516.613 128.25 520.013 124.05C523.413 119.85 525.113 114.3 525.113 107.4C525.113 100.6 523.413 95.1 520.013 90.9C516.613 86.7 512.113 84.6 506.513 84.6C500.913 84.6 496.413 86.75 493.013 91.05C489.613 95.25 487.913 100.7 487.913 107.4C487.913 114.2 489.613 119.75 493.013 124.05C496.413 128.25 500.913 130.35 506.513 130.35ZM556.225 150V35.55H583.075V88.05H585.475C585.475 85.55 586.025 83.1 587.125 80.7C588.325 78.3 589.775 75.9 591.475 73.5L618.625 35.55H650.875L608.875 91.05L651.475 150H618.925L591.475 110.7C587.675 105.2 584.675 100.15 582.475 95.55L580.375 96.9C581.475 98.5 582.175 100.15 582.475 101.85C582.875 103.55 583.075 106.55 583.075 110.85V150H556.225ZM688.241 151.8C679.441 151.8 671.641 149.95 664.841 146.25C658.141 142.45 652.941 137.25 649.241 130.65C645.641 124.05 643.841 116.55 643.841 108.15C643.841 100.55 645.391 93.35 648.491 86.55C651.691 79.65 656.541 74.05 663.041 69.75C669.641 65.35 677.791 63.15 687.491 63.15C695.391 63.15 702.641 64.7 709.241 67.8C715.941 70.9 721.291 75.85 725.291 82.65C729.391 89.45 731.441 98.05 731.441 108.45V112.8H681.791C675.191 112.8 671.041 112.6 669.341 112.2L668.591 114.45C669.391 114.65 669.991 115.05 670.391 115.65C670.791 116.25 671.241 117.2 671.741 118.5C672.641 120.8 673.591 122.55 674.591 123.75C677.991 128.05 682.991 130.2 689.591 130.2C693.291 130.2 696.441 129.3 699.041 127.5C701.741 125.7 703.641 123.4 704.741 120.6H730.091C727.491 129.8 722.691 137.3 715.691 143.1C708.691 148.9 699.541 151.8 688.241 151.8ZM670.541 96.75C672.341 95.95 673.841 95.45 675.041 95.25C676.241 95.05 677.591 94.95 679.091 94.95H697.691C699.191 94.95 700.541 95.05 701.741 95.25C702.941 95.45 704.441 95.95 706.241 96.75L707.291 94.5C706.591 94.3 706.091 94.05 705.791 93.75C705.591 93.35 705.341 92.8 705.041 92.1C704.341 90.3 703.291 88.7 701.891 87.3C698.591 84 694.091 82.35 688.391 82.35C682.691 82.35 678.191 84 674.891 87.3C673.491 88.7 672.441 90.3 671.741 92.1C671.441 92.8 671.141 93.35 670.841 93.75C670.641 94.05 670.191 94.3 669.491 94.5L670.541 96.75ZM739.157 179.4V158.85H749.357C751.757 158.85 753.757 158.45 755.357 157.65C756.957 156.85 758.257 155.3 759.257 153L760.007 151.2L729.857 64.95H756.857L769.607 112.95C770.907 117.55 771.557 121.4 771.557 124.5H773.357C773.357 121.8 773.957 117.95 775.157 112.95L786.707 64.95H813.857L783.707 155.4C780.807 164.1 777.157 170.25 772.757 173.85C768.457 177.55 762.307 179.4 754.307 179.4H739.157Z" fill="white"/>
</g>
<defs>
<filter id="filter0_d_43_5" x="-3" y="15" width="156" height="156" filterUnits="userSpaceOnUse" color-interpolation-filters="sRGB">
<feFlood flood-opacity="0" result="BackgroundImageFix"/>
<feColorMatrix in="SourceAlpha" type="matrix" values="0 0 0 0 0 0 0 0 0 0 0 0 0 0 0 0 0 0 127 0" result="hardAlpha"/>
<feMorphology radius="3" operator="dilate" in="SourceAlpha" result="effect1_dropShadow_43_5"/>
<feOffset/>
<feGaussianBlur stdDeviation="5"/>
<feComposite in2="hardAlpha" operator="out"/>
<feColorMatrix type="matrix" values="0 0 0 0 0 0 0 0 0 0 0 0 0 0 0 0 0 0 0.25 0"/>
<feBlend mode="normal" in2="BackgroundImageFix" result="effect1_dropShadow_43_5"/>
<feBlend mode="normal" in="SourceGraphic" in2="effect1_dropShadow_43_5" result="shape"/>
</filter>
<radialGradient id="paint0_radial_43_5" cx="0" cy="0" r="1" gradientUnits="userSpaceOnUse" gradientTransform="translate(75 18) rotate(90) scale(150)">
<stop stop-color="white"/>
<stop offset="1" stop-color="#CDCDCD"/>
</radialGradient>
<radialGradient id="paint1_radial_43_5" cx="0" cy="0" r="1" gradientUnits="userSpaceOnUse" gradientTransform="translate(75 28) rotate(90) scale(130)">
<stop stop-color="#545454"/>
<stop offset="1"/>
</radialGradient>
<clipPath id="clip0_43_5">
<rect width="816" height="186" fill="white"/>
</clipPath>
<clipPath id="clip1_43_5">
<rect y="18" width="150" height="150" rx="30" fill="white"/>
</clipPath>
</defs>
</svg>
